{"asset":{"version":"2.0","generator":"babylon.js glTF exporter for 3dsmax 2021 v20220308.1"},"scene":0,"scenes":[{"nodes":[0]}],"nodes":[{"mesh":0,"translation":[0.240355089,0,0.2539114],"name":"Box001"}],"meshes":[{"primitives":[{"attributes":{"POSITION":1,"NORMAL":2,"TEXCOORD_0":3},"indices":0,"material":0}],"name":"Box001"}],"accessors":[{"bufferView":0,"componentType":5123,"count":4224,"type":"SCALAR","name":"accessorIndices"},{"bufferView":1,"componentType":5126,"count":1174,"max":[0.240610048,0.174,0.4661006],"min":[-0.240610048,0,-0.4661006],"type":"VEC3","name":"accessorPositions"},{"bufferView":1,"byteOffset":14088,"componentType":5126,"count":1174,"type":"VEC3","name":"accessorNormals"},{"bufferView":2,"componentType":5126,"count":1174,"type":"VEC2","name":"accessorUVs"}],"bufferViews":[{"buffer":0,"byteLength":8448,"name":"bufferViewScalar"},{"buffer":0,"byteOffset":8448,"byteLength":28176,"byteStride":12,"name":"bufferViewFloatVec3"},{"buffer":0,"byteOffset":36624,"byteLength":9392,"byteStride":8,"name":"bufferViewFloatVec2"}],"buffers":[{"uri":"data:application/octet-stream;base64,","byteLength":46016}],"materials":[{"pbrMetallicRoughness":{"baseColorTexture":{"index":0},"metallicFactor":0.12,"roughnessFactor":0.52},"alphaMode":"BLEND","doubleSided":true,"name":"Material #25","extras":{"babylonSeparateCullingPass":false}}],"textures":[{"sampler":0,"source":0,"name":"svartest.png"}],"images":[{"uri":"data:application/octet-stream;base64,"}],"samplers":[{"magFilter":9729,"minFilter":9987}]}